<?xml version="1.0" encoding="utf-8"?><svg viewBox="0 0 682.667 682.667" xmlns="http://www.w3.org/2000/svg" xmlns:xlink="http://www.w3.org/1999/xlink"><style>:root>svg{display:none}:root>svg:target{display:block}</style><svg fill="none" viewBox="0 0 12 12" id="arrow-upward" xmlns="http://www.w3.org/2000/svg"><g clip-path="url(#aa)"><path d="m2 6 .705.705L5.5 3.915V10h1V3.915L9.29 6.71 10 6 6 2 2 6Z" fill="#9873FF"/></g><defs><clipPath id="aa"><path fill="#fff" transform="rotate(-180 6 6)" d="M0 0h12v12H0z"/></clipPath></defs></svg><svg fill="none" viewBox="0 0 12 12" id="arrow_downward" xmlns="http://www.w3.org/2000/svg"><g clip-path="url(#ba)"><path d="m10 6-.705-.705L6.5 8.085V2h-1v6.085L2.71 5.29 2 6l4 4 4-4Z" fill="#9873FF"/></g><defs><clipPath id="ba"><path fill="#fff" d="M0 0h12v12H0z"/></clipPath></defs></svg><svg fill="none" viewBox="0 0 16 16" id="email" xmlns="http://www.w3.org/2000/svg"><path opacity=".7" fill-rule="evenodd" clip-rule="evenodd" d="M8 16A8 8 0 1 0 8 0a8 8 0 0 0 0 16ZM4 5.75c0-.412.36-.75.8-.75h6.4c.44 0 .8.338.8.75v4.5c0 .412-.36.75-.8.75H4.8c-.44 0-.8-.338-.8-.75v-4.5Zm4.424 2.377 2.616-1.533c.1-.06.16-.162.16-.27 0-.252-.292-.401-.52-.27L8 7.625 5.32 6.054c-.228-.131-.52.018-.52.27 0 .109.06.21.16.27l2.616 1.533c.26.154.588.154.848 0Z" fill="#9873FF"/></svg><svg fill="none" viewBox="0 0 16 16" id="facebook" xmlns="http://www.w3.org/2000/svg"><path d="M8 0C3.6 0 0 3.606 0 8.048c0 4.016 2.928 7.35 6.752 7.952v-5.623H4.72V8.048h2.032V6.273c0-2.016 1.192-3.124 3.024-3.124.872 0 1.784.152 1.784.152v1.984h-1.008c-.992 0-1.304.619-1.304 1.253v1.51h2.224l-.36 2.33H9.248V16a7.992 7.992 0 0 0 4.84-2.723A8.051 8.051 0 0 0 16 8.048C16 3.606 12.4 0 8 0Z" fill="#9873FF" opacity=".7"/></svg><svg version="1.0" viewBox="0 0 512 512" id="hide-password" xmlns="http://www.w3.org/2000/svg"><path d="M348.5 153.1c-1.1.6-10.2 9.2-20.1 19.1l-18.2 18-10-4.1c-14-5.7-24.5-8.1-39.3-8.8-25-1.2-47.5 5-68.9 18.8-4 2.6-16.1 13.8-31.2 28.8-21.2 21-24.8 25-24.8 27.6 0 2.4 3.2 6.2 21.3 24.3 11.6 11.7 24.3 23.7 28 26.5l6.8 5-20.1 20.2c-17.7 17.8-20 20.5-20 23.4 0 4.3 3.8 8.1 8.2 8.1 2.8 0 5.6-2.4 24.9-21.6l21.7-21.6 6.3 2.5c35.5 14.2 74.4 10.3 106.4-10.6 6.8-4.5 14.7-11.6 32.3-29.1 12.8-12.7 23.5-24.1 23.9-25.4.3-1.3.2-3.2-.3-4.2-1.3-2.7-40-42-46.1-46.7l-5.1-4 16.9-16.9c9.2-9.2 17.3-18.1 18-19.6 1.5-3.6-.2-8.1-3.7-9.7-3.1-1.4-4.3-1.4-6.9 0zm-67 43.4c4.9 1.4 10.7 3.4 12.8 4.3l3.8 1.7-8.9 8.9-9 8.8-6.5-3.2c-20.4-10-44.3-1.7-54 18.7-2.9 6.3-3.2 7.6-3.2 16.9 0 9.5.2 10.4 3.6 17.2l3.5 7.1-10.1 10.1-10.2 10.1-7.9-5.9c-7.8-5.9-39.4-37.1-39.4-38.9 0-1.7 37.5-38 43.5-42 19-12.8 35.6-17.5 59-16.9 11.5.3 15.6.9 23 3.1zm39.8 20.3c7.7 6.2 34.9 34.1 34.5 35.3-.2.5-8.3 8.9-18 18.8-23.6 23.9-34.2 30.9-56.4 37.3-6.9 2-10.2 2.3-24.9 2.3-17.2 0-24.6-1.1-34.4-5.2l-3.4-1.5 46.8-46.8c25.8-25.8 47.4-46.6 47.9-46.3.6.3 4.2 3.1 7.9 6.1zm-58.5 12.7c2.9.9 5.2 1.9 5.2 2.3 0 .4-7.3 8.1-16.3 17l-16.3 16.3-1.3-2.8c-.7-1.5-1.5-5.3-1.8-8.3-1-10.6 5.6-20.5 15.9-24.1 6.5-2.3 8.1-2.3 14.6-.4z"/></svg><svg fill="none" viewBox="0 0 23 16" id="new-client" xmlns="http://www.w3.org/2000/svg"><path d="M14.5 8c2.21 0 4-1.79 4-4s-1.79-4-4-4-4 1.79-4 4 1.79 4 4 4Zm-9-2V3h-2v3h-3v2h3v3h2V8h3V6h-3Zm9 4c-2.67 0-8 1.34-8 4v2h16v-2c0-2.66-5.33-4-8-4Z" fill="#9873FF"/></svg><svg fill="none" viewBox="0 0 16 16" id="other" xmlns="http://www.w3.org/2000/svg"><path opacity=".7" fill-rule="evenodd" clip-rule="evenodd" d="M8 16A8 8 0 1 0 8 0a8 8 0 0 0 0 16ZM3 8c0-2.76 2.24-5 5-5s5 2.24 5 5-2.24 5-5 5-5-2.24-5-5Zm6.5-2c0-.83-.67-1.5-1.5-1.5S6.5 5.17 6.5 6 7.17 7.5 8 7.5 9.5 6.83 9.5 6ZM5 9.99a3.6 3.6 0 0 0 6 0c-.015-.995-2.005-1.54-3-1.54-1 0-2.985.545-3 1.54Z" fill="#9873FF"/></svg><svg fill="none" viewBox="0 0 16 16" id="phone" xmlns="http://www.w3.org/2000/svg"><g opacity=".7"><circle cx="8" cy="8" r="8" fill="#9873FF"/><path d="M11.56 9.502a5.085 5.085 0 0 1-1.569-.249.434.434 0 0 0-.449.107l-.698.876C7.587 9.636 6.41 8.502 5.782 7.2l.867-.738a.454.454 0 0 0 .107-.453 4.957 4.957 0 0 1-.25-1.569c0-.24-.2-.44-.44-.44H4.53C4.289 4 4 4.107 4 4.44 4 8.569 7.436 12 11.56 12c.316 0 .44-.28.44-.524V9.942c0-.24-.2-.44-.44-.44Z" fill="#fff"/></g></svg><svg version="1.0" viewBox="0 0 512 512" id="show-password" xmlns="http://www.w3.org/2000/svg"><path d="M243.3 135.1c-42.8 3.3-86.8 22.4-127.2 55.2-23.2 18.9-44.5 41.1-49.3 51.4-2.4 5.1-2.9 7.5-2.9 13.5 0 13.7 3.2 18.7 27.1 42.8 49.4 49.7 97.5 74.7 152 79.1 60.4 4.8 125.8-24.6 183.7-82.8 19.1-19.2 22.5-24.9 22.5-37.8 0-8.5-1.9-14.1-7.4-21.4-6.4-8.6-37.1-38.8-48.4-47.8-38.1-30.1-78.3-47.8-118.6-52.2-10.7-1.2-16.2-1.2-31.5 0zm45.2 23.9c44.7 9.5 89.1 37.5 128.1 80.8 15 16.5 14.7 18.8-5.9 39.5-42.9 43-91.9 70-138.1 75.7-13.5 1.7-38.1.8-51-2-44.4-9.4-88.1-37.3-128.2-81.7-14-15.4-13.5-18 7.4-39 39.9-40 83.3-65.7 124.1-73.3 15.8-2.9 15.2-2.9 35.1-2.5 14.1.3 20.9.8 28.5 2.5z"/><path d="M241 203.9c-9.5 3.1-16.3 7.2-23.1 14C207.2 228.6 202 241 202 256s5.2 27.4 15.9 38.1c21.4 21.4 54.8 21.4 76.2 0 29.4-29.4 16.4-78.5-24-90.5-7.4-2.2-21.9-2-29.1.3zm28.2 21.8c6.5 3 13.3 9.5 16.5 16.2 3.7 7.5 4 20 .6 27.3-3 6.6-9.6 13.3-16.2 16.5-4.8 2.4-6.8 2.8-14.1 2.8s-9.3-.4-14.1-2.8c-22.3-10.9-25.3-40.2-5.7-56 8.5-6.8 22.7-8.5 33-4z"/></svg><svg fill="none" viewBox="0 0 16 16" id="vk" xmlns="http://www.w3.org/2000/svg"><path d="M8 0a8 8 0 1 0 0 16A8 8 0 0 0 8 0Zm4.058 8.865c.373.364.767.707 1.102 1.109.148.178.288.362.395.568.152.295.014.618-.25.636h-1.639c-.423.035-.76-.136-1.044-.426-.226-.23-.437-.477-.655-.715a1.533 1.533 0 0 0-.295-.263c-.224-.145-.418-.1-.546.133-.13.238-.16.5-.172.765-.018.387-.135.488-.523.506-.828.038-1.614-.087-2.345-.505-.645-.368-1.143-.888-1.578-1.477C3.66 8.048 3.013 6.788 2.43 5.493c-.13-.292-.035-.448.287-.455a45.59 45.59 0 0 1 1.605 0c.218.003.362.128.445.333.29.712.644 1.388 1.088 2.016.118.167.239.334.41.452.19.13.336.087.425-.125.057-.135.082-.279.094-.423a6.317 6.317 0 0 0-.026-1.482c-.045-.308-.219-.507-.526-.565-.156-.03-.134-.088-.057-.177.132-.155.255-.25.503-.25H8.53c.291.057.357.188.396.482l.002 2.058c-.003.113.057.45.261.525.164.054.272-.077.37-.18.444-.472.76-1.028 1.044-1.604.125-.254.233-.517.338-.78.077-.194.199-.29.418-.287l1.783.002c.053 0 .106 0 .158.01.3.051.383.18.29.474-.146.46-.43.844-.708 1.229-.298.411-.616.809-.91 1.222-.272.379-.25.569.086.897Z" fill="#9873FF" opacity=".7"/></svg></svg>